PathFileType	4	(X/Y/Z)	/Users/itak/Documents/Research/Walk-IL/dataset/trc/00528_00183.trc
DataRate	CameraRate	NumFrames	NumMarkers	Units	OrigDataRate	OrigDataStartFrame	OrigNumFrames
100.000000	100.000000	4	53	mm	100.000000	133	534
Frame#	Time	RPSI			LPSI			L3			STRN			T10			C7			CLAV			RBAK			LBAK			LSHO			LUPA			LAEL			LAOL			LWTS			LWPS			LFRA			LIFD			LHPS			LHTS			RSHO			RUPA			RAEL			RAOL			RWTS			RWPS			RFRA			RIFD			RHTS			RHPS			RBHD			LFHD			RFHD			LBHD			LHIP			RHIP			RASI			LASI			LKNE			LTHI			LANK			LTIP			LTOE			LMT1			LMT5			LHEE			RKNE			RTHI			RANK			RTIP			RTOE			RMT1			RMT5			RHEE			
		X1	Y1	Z1	X2	Y2	Z2	X3	Y3	Z3	X4	Y4	Z4	X5	Y5	Z5	X6	Y6	Z6	X7	Y7	Z7	X8	Y8	Z8	X9	Y9	Z9	X10	Y10	Z10	X11	Y11	Z11	X12	Y12	Z12	X13	Y13	Z13	X14	Y14	Z14	X15	Y15	Z15	X16	Y16	Z16	X17	Y17	Z17	X18	Y18	Z18	X19	Y19	Z19	X20	Y20	Z20	X21	Y21	Z21	X22	Y22	Z22	X23	Y23	Z23	X24	Y24	Z24	X25	Y25	Z25	X26	Y26	Z26	X27	Y27	Z27	X28	Y28	Z28	X29	Y29	Z29	X30	Y30	Z30	X31	Y31	Z31	X32	Y32	Z32	X33	Y33	Z33	X34	Y34	Z34	X35	Y35	Z35	X36	Y36	Z36	X37	Y37	Z37	X38	Y38	Z38	X39	Y39	Z39	X40	Y40	Z40	X41	Y41	Z41	X42	Y42	Z42	X43	Y43	Z43	X44	Y44	Z44	X45	Y45	Z45	X46	Y46	Z46	X47	Y47	Z47	X48	Y48	Z48	X49	Y49	Z49	X50	Y50	Z50	X51	Y51	Z51	X52	Y52	Z52	X53	Y53	Z53	

134	1.33	-1090.498046875	971.6273803710938	-484.2511291503906	-1016.670349121094	966.2371826171875	-583.5325317382812	-1042.17236328125	1045.063598632812	-539.5433959960938	-841.6536254882812	1186.069091796875	-419.7889709472656	-1044.960693359375	1149.954956054688	-542.8511352539062	-990.1467895507812	1375.149536132812	-507.747314453125	-863.7568359375	1284.360107421875	-433.7127380371094	-1085.7763671875	1259.943237304688	-465.726806640625	-970.8832397460938	1323.792236328125	-597.5157470703125	-849.0549926757812	1362.620727539062	-609.9627075195312	-839.0581665039062	1238.827026367188	-676.21630859375	-832.77734375	1029.637084960938	-707.0555419921875	-931.6150512695312	1027.202026367188	-689.6849975585938	-800.584228515625	829.1018676757812	-642.9786376953125	-847.412841796875	807.9094848632812	-722.0796508789062	-825.85693359375	942.688720703125	-706.31982421875	-818.0623779296875	674.279296875	-649.731689453125	-836.4711303710938	751.3629150390625	-711.650146484375	-792.7290649414062	750.9951782226562	-663.1510009765625	-1020.369140625	1365.891723632812	-354.7162780761719	-1072.071044921875	1302.08447265625	-318.6830444335938	-1119.952392578125	1038.192993164062	-283.0438842773438	-1139.575561523438	1022.400634765625	-344.8516845703125	-1027.320556640625	835.3853759765625	-240.5612487792969	-1116.199340820312	816.6683959960938	-247.742431640625	-1123.118530273438	983.4578857421875	-273.9025268554688	-1034.250854492188	675.342041015625	-230.8224334716797	-1033.766845703125	743.2813720703125	-208.8340148925781	-1100.615966796875	742.5634765625	-231.7231292724609	-1005.932678222656	1513.791381835938	-413.3371276855469	-829.2064208984375	1593.694702148438	-465.1626892089844	-899.3077392578125	1582.381103515625	-359.2162475585938	-930.09228515625	1522.384155273438	-553.8107299804688	-862.7811279296875	877.5786743164062	-632.2203979492188	-1074.399780273438	879.9343872070312	-313.5735778808594	-955.0586547851562	918.3690795898438	-322.808837890625	-820.4339599609375	908.0376586914062	-523.5557250976562	-938.1915893554688	458.5653991699219	-598.9765625	-891.7520751953125	611.9216918945312	-607.9434814453125	-1071.304565429688	45.26506042480469	-603.092041015625	-985.347412109375	313.852783203125	-612.6021728515625	-925.9451293945312	43.00423049926758	-455.4620056152344	-1008.271484375	49.47333145141602	-464.5536193847656	-971.2994995117188	41.00559616088867	-558.6233520507812	-1141.884521484375	47.27166366577148	-569.7946166992188	-943.0909423828125	511.3456726074219	-285.2677001953125	-1022.549865722656	757.5379028320312	-285.5756225585938	-1076.61376953125	101.2415084838867	-351.0668029785156	-950.4312744140625	367.6674194335938	-286.5294189453125	-899.1640625	63.17141342163086	-269.26806640625	-924.1129760742188	68.07719421386719	-338.4242553710938	-999.0859375	76.56533050537109	-275.3904724121094	-1090.916625976562	100.1820755004883	-420.632568359375	
135	1.34	-1088.291137695312	971.67041015625	-482.6932678222656	-1014.756042480469	966.2314453125	-582.0872192382812	-1039.806762695312	1045.0927734375	-538.133056640625	-839.1626586914062	1185.626708984375	-418.2965087890625	-1042.53515625	1149.963012695312	-541.8660278320312	-987.2609252929688	1375.016357421875	-506.1632080078125	-861.1124877929688	1283.973510742188	-432.0843811035156	-1083.120239257812	1259.901733398438	-464.5206298828125	-967.8720092773438	1323.737426757812	-596.0484619140625	-845.9442138671875	1362.477294921875	-608.1514892578125	-835.5721435546875	1238.744750976562	-674.4290161132812	-828.9015502929688	1029.665893554688	-705.5621948242188	-927.7810668945312	1026.992919921875	-688.3153686523438	-797.5645141601562	828.1715087890625	-642.308837890625	-844.192626953125	808.0741577148438	-721.853759765625	-822.042724609375	942.5645141601562	-705.1610717773438	-816.1226196289062	673.7218627929688	-650.6851196289062	-833.59765625	751.32666015625	-711.9520874023438	-789.9759521484375	750.2122802734375	-663.1259155273438	-1017.773498535156	1365.627075195312	-353.2415466308594	-1069.696044921875	1301.8359375	-317.5093383789062	-1119.417236328125	1038.170776367188	-283.3067626953125	-1137.534545898438	1022.3193359375	-345.598876953125	-1028.427612304688	834.9119873046875	-238.8864593505859	-1117.090454101562	816.585693359375	-248.2555236816406	-1123.051025390625	983.4359130859375	-274.2594604492188	-1036.229370117188	674.8578491210938	-229.7804412841797	-1035.941040039062	742.729248046875	-207.5805816650391	-1102.270141601562	742.4114990234375	-231.9695739746094	-1003.608459472656	1513.164794921875	-411.9202880859375	-827.1669311523438	1593.785400390625	-463.2913513183594	-897.4797973632812	1582.2890625	-357.5279235839844	-927.4736938476562	1521.973876953125	-552.1469116210938	-861.177001953125	877.17724609375	-631.1975708007812	-1071.798095703125	879.9328002929688	-311.9358825683594	-952.5562133789062	918.3041381835938	-321.592529296875	-817.9215087890625	907.7649536132812	-522.5126953125	-937.588623046875	458.4135437011719	-598.4517211914062	-890.8065795898438	611.5962524414062	-607.2876586914062	-1071.32958984375	45.28341674804688	-603.1011352539062	-985.1067504882812	313.8656921386719	-612.2822265625	-925.8758544921875	43.37823104858398	-455.7607116699219	-1008.307739257812	49.52071380615234	-464.6543579101562	-971.3475341796875	40.98529434204102	-558.7252807617188	-1141.910400390625	47.28095626831055	-569.8046875	-938.5182495117188	512.1985473632812	-283.5641174316406	-1019.751831054688	757.9297485351562	-284.0443115234375	-1064.66650390625	98.91661071777344	-346.2063903808594	-943.537841796875	368.0766906738281	-283.7452392578125	-886.5847778320312	64.5399169921875	-264.0245056152344	-911.5576782226562	68.53504180908203	-333.2580261230469	-986.7381591796875	76.14790344238281	-270.3700866699219	-1078.848388671875	97.00133514404297	-415.84375	
136	1.35	-1086.009765625	971.6355590820312	-481.0249633789062	-1012.768188476562	966.1607055664062	-580.5621948242188	-1037.37548828125	1045.088989257812	-536.6367797851562	-836.5748291015625	1185.144775390625	-416.7519226074219	-1040.0380859375	1149.947387695312	-540.7697143554688	-984.2896118164062	1374.860717773438	-504.4773864746094	-858.3704833984375	1283.543579101562	-430.3969421386719	-1080.375	1259.821044921875	-463.1936645507812	-964.7969360351562	1323.664794921875	-594.5010986328125	-842.7750244140625	1362.2998046875	-606.27099609375	-832.0262451171875	1238.63525390625	-672.57421875	-824.9190063476562	1029.651000976562	-703.9893798828125	-923.8406982421875	1026.751831054688	-686.8582763671875	-794.3356323242188	827.2887573242188	-641.4735717773438	-840.7418823242188	808.1896362304688	-721.4348754882812	-818.1056518554688	942.4287719726562	-703.8780517578125	-814.346435546875	673.1029052734375	-651.6525268554688	-830.4635620117188	751.3131103515625	-712.0633544921875	-787.0315551757812	749.46533203125	-662.929931640625	-1015.063903808594	1365.318237304688	-351.6629333496094	-1067.195556640625	1301.533081054688	-316.2060241699219	-1118.69384765625	1038.097900390625	-283.5570983886719	-1135.254516601562	1022.177734375	-346.2925415039062	-1029.44580078125	834.3814086914062	-237.1627197265625	-1117.812377929688	816.440185546875	-248.8600769042969	-1122.811401367188	983.3784790039062	-274.610107421875	-1038.098876953125	674.3111572265625	-228.7811737060547	-1038.048828125	742.113037109375	-206.3421173095703	-1103.7890625	742.2077026367188	-232.3031005859375	-1001.190795898438	1512.505493164062	-410.4127502441406	-825.0306396484375	1593.8330078125	-461.3465576171875	-895.5464477539062	1582.149047851562	-355.7684020996094	-924.75927734375	1521.533325195312	-550.4086303710938	-859.4732666015625	876.7509765625	-630.0980834960938	-1069.252685546875	879.9716186523438	-310.3490905761719	-949.9547729492188	918.201904296875	-320.2805786132812	-815.1753540039062	907.52099609375	-521.3659057617188	-936.9131469726562	458.2310791015625	-597.7921752929688	-889.6212158203125	611.263916015625	-606.4015502929688	-1071.361694335938	45.31824493408203	-603.0855712890625	-984.7946166992188	313.8661804199219	-611.8679809570312	-925.8043212890625	43.71897888183594	-456.0352478027344	-1008.35693359375	49.5428466796875	-464.7379760742188	-971.3760986328125	40.97122955322266	-558.8203125	-1141.93212890625	47.28729629516602	-569.7975463867188	-934.0333251953125	512.9151611328125	-281.8688659667969	-1016.838562011719	758.2279663085938	-282.3983764648438	-1052.274047851562	96.36698913574219	-340.9279479980469	-936.6143798828125	368.3626708984375	-280.8733520507812	-873.4990234375	65.94355773925781	-258.5545654296875	-898.5717163085938	68.96815490722656	-327.8349304199219	-973.8688354492188	75.64044952392578	-265.0157470703125	-1066.388061523438	93.55014801025391	-410.633056640625	
137	1.36	-1083.658447265625	971.5173950195312	-479.2490539550781	-1010.705627441406	966.0117797851562	-578.9618530273438	-1034.878784179688	1045.043579101562	-535.0621948242188	-833.8960571289062	1184.617065429688	-415.1517333984375	-1037.462158203125	1149.899047851562	-539.5424194335938	-981.2284545898438	1374.67578125	-502.6988525390625	-855.5341796875	1283.065063476562	-428.6480102539062	-1077.54345703125	1259.700439453125	-461.7489013671875	-961.6516723632812	1323.56103515625	-592.86572265625	-839.5469970703125	1362.080810546875	-604.3181762695312	-828.4314575195312	1238.489379882812	-670.6524047851562	-820.8389892578125	1029.5830078125	-702.3355712890625	-919.8106079101562	1026.476928710938	-685.3375854492188	-790.8868408203125	826.4622192382812	-640.4613037109375	-837.0396728515625	808.2448120117188	-720.8110961914062	-814.0521850585938	942.2686767578125	-702.4680786132812	-812.6546630859375	672.4091796875	-652.57958984375	-827.0518798828125	751.3162231445312	-711.9617309570312	-783.8751220703125	748.75048828125	-662.5306396484375	-1012.241943359375	1364.95947265625	-349.9838256835938	-1064.57470703125	1301.175537109375	-314.7703857421875	-1117.76123046875	1037.96728515625	-283.765869140625	-1132.747680664062	1021.984191894531	-346.8901672363281	-1030.348388671875	833.7863159179688	-235.3952026367188	-1118.347045898438	816.227294921875	-249.5229949951172	-1122.369140625	983.2784423828125	-274.938720703125	-1039.829467773438	673.6981811523438	-227.8188934326172	-1040.05029296875	741.4278564453125	-205.1252136230469	-1105.13525390625	741.9375	-232.7047729492188	-998.6776123046875	1511.805541992188	-408.8062133789062	-822.7898559570312	1593.834228515625	-459.3309631347656	-893.5016479492188	1581.953857421875	-353.9363403320312	-921.9428100585938	1521.046997070312	-548.5936279296875	-857.6793823242188	876.2999877929688	-628.923583984375	-1066.769409179688	880.060302734375	-308.8314208984375	-947.2546997070312	918.0599975585938	-318.8763427734375	-812.2304077148438	907.2811279296875	-520.1115112304688	-936.1526489257812	458.0254516601562	-597.0046997070312	-888.1926879882812	610.928955078125	-605.2903442382812	-1071.400024414062	45.36814880371094	-603.0488891601562	-984.4019165039062	313.8544616699219	-611.380126953125	-925.7302856445312	44.02421951293945	-456.2863464355469	-1008.422607421875	49.5480842590332	-464.8096313476562	-971.3858032226562	40.96266555786133	-558.9142456054688	-1141.950439453125	47.29299926757812	-569.777099609375	-929.6277465820312	513.489013671875	-280.1563415527344	-1013.787170410156	758.4337158203125	-280.6197814941406	-1039.474487304688	93.66288757324219	-335.27587890625	-929.6582641601562	368.536865234375	-277.9120788574219	-859.96826171875	67.41372680664062	-252.9129180908203	-885.2066650390625	69.41909790039062	-322.20654296875	-960.534912109375	75.09741973876953	-259.3740234375	-1053.575561523438	89.91530609130859	-405.0418701171875	
